<?xml version="1.0" encoding="UTF-8" standalone="no"?>
<!DOCTYPE svg PUBLIC "-//W3C//DTD SVG 1.1//EN" "http://www.w3.org/Graphics/SVG/1.1/DTD/svg11.dtd">
<svg width="100%" height="100%" viewBox="0 0 48 48" version="1.1" xmlns="http://www.w3.org/2000/svg" xmlns:xlink="http://www.w3.org/1999/xlink" xml:space="preserve" xmlns:serif="http://www.serif.com/" style="fill-rule:evenodd;clip-rule:evenodd;stroke-linecap:round;stroke-linejoin:round;stroke-miterlimit:1.5;">
    <g transform="matrix(3.28571,0,0,3.53846,-41.7143,-62.6923)">
        <path d="M27,19.696C27,18.76 26.182,18 25.174,18L14.826,18C13.818,18 13,18.76 13,19.696L13,29.304C13,30.24 13.818,31 14.826,31L25.174,31C26.182,31 27,30.24 27,29.304L27,19.696Z" style="fill:none;stroke:rgb(252,252,252);stroke-width:0.59px;"/>
    </g>
    <g transform="matrix(1.45455,0,0,2,-6.54545,-16.4552)">
        <rect x="10" y="13" width="22" height="1" style="fill:rgb(252,252,252);"/>
    </g>
    <g transform="matrix(1.45455,0,0,2,-6.54545,-7.48507)">
        <rect x="10" y="13" width="22" height="1" style="fill:rgb(252,252,252);"/>
    </g>
    <g transform="matrix(1.45455,0,0,2,-6.54545,1.48507)">
        <rect x="10" y="13" width="22" height="1" style="fill:rgb(252,252,252);"/>
    </g>
    <g transform="matrix(1.45455,0,0,2,-6.54545,10.4552)">
        <rect x="10" y="13" width="22" height="1" style="fill:rgb(252,252,252);"/>
    </g>
</svg>
